<svg xmlns:xlink="http://www.w3.org/1999/xlink" version="1.1" viewBox="-1.25 492.892 169.075 244.64">
  <defs>
    <g id="base">
      <path style="fill:#FFFFFF;stroke:#000000;stroke-width:2.5" d="M 0,0C0,3.78 3.09,6.87 6.87,6.87L159.715,6.87C163.485,6.87 166.575,3.78 166.575,0L166.575,-228.4C166.575,-232.18 163.485,-235.27 159.715,-235.27L6.87,-235.27C3.09,-235.27 0,-232.18 0,-228.4L0,0 z"/>
    </g>
    <g id="ace">
      <text transform="scale(0.56453 1.05741)" font-family="Bitstream Vera Serif" font-weight="bold" font-size="43">A</text>
    </g>
    <g id="spade">
      <path d="M3.92-7.93c-1.67,0-2.55,1.78-3.01,3.56c-0.46,1.78-0.5,3.56-0.5,3.56L-0.44-0.8c0,0-0.16-7.13-3.5-7.13H3.92z"/>
      <path d="M6.75-0.8C6.74,2.67,1.53,5.19,0,7.93C-1.53,5.18-6.74,2.66-6.75-0.8c0-1.64,1.51-2.97,3.38-2.97C-1.51-3.77,0-2.44,0-0.8c0-1.64,1.51-2.97,3.38-2.97S6.75-2.44,6.75-0.8z"/>
    </g>
  </defs>
  <g xmlns:xlink="http://www.w3.org/1999/xlink" id="1_spade">
    <use xlink:href="#base" x="0" y="729.412"/>
    <use xlink:href="#ace" x="4" y="530.295"/>
    <use xlink:href="#ace" x="163.575" y="699.132" transform="rotate(180,163.575,699.132)"/>
    <use xlink:href="#spade" x="13.65" y="544.295" transform="rotate(180,13.65,544.295)"/>
    <use xlink:href="#spade" x="153.925" y="685.132"/>
    <use xlink:href="#spade" x="34.9115" y="253.268" transform="scale(2.4) rotate(180,34.9115,253.268)"/>
  </g>
</svg>