<svg xmlns:xlink="http://www.w3.org/1999/xlink" version="1.1" viewBox="669.05 6.61699 169.075 244.64">
  <defs>
    <g id="base">
      <path style="fill:#FFFFFF;stroke:#000000;stroke-width:2.5" d="M 0,0C0,3.78 3.09,6.87 6.87,6.87L159.715,6.87C163.485,6.87 166.575,3.78 166.575,0L166.575,-228.4C166.575,-232.18 163.485,-235.27 159.715,-235.27L6.87,-235.27C3.09,-235.27 0,-232.18 0,-228.4L0,0 z"/>
    </g>
    <g id="n_5">
      <text transform="scale(0.56453 1.05741)" font-family="Bitstream Vera Serif" font-weight="bold" font-size="43">5</text>
    </g>
    <g id="diamond">
      <path style="fill:#e6180a" d="M0,0C-2.56,0-5.12,0-7.68,0C -6.8053,0.039-6.061,0.605-5.358,1.0728C-3.779,2.264-2.3,3.63 -1.132,5.228C-0.587,6.032 -0.0144,6.936 0,7.94M-7.68,0C-6.57,-0.035 -5.622,-0.7413 -4.776,-1.393C-3.281,-2.648 -1.987,-4.141 -0.895,-5.757C-0.494,-6.426 -0.022,-7.135 0,-7.94C0,-5.293 0,-2.647 0,0M0,-7.94C0.038,-6.758 0.758,-5.734 1.438,-4.82C2.65,-3.310 4.086,-1.974 5.666,-0.857C6.28,-0.474 6.932,-0.0185 7.68,0C5.12,0 2.56,0 0,0M 7.68,0C6.57,0.035 5.622,0.741 4.776,1.392C 3.281,2.648 1.987,4.141 0.895,5.757C0.494,6.426 0.0225,7.135 0,7.94C0,5.293 0,2.647 0,0"/>
    </g>
  </defs>
  <g xmlns:xlink="http://www.w3.org/1999/xlink" id="5_diamond">
    <use xlink:href="#base" x="670.3" y="243.137"/>
    <use xlink:href="#n_5" x="674.3" y="44.02" style="fill:#e6180a"/>
    <use xlink:href="#n_5" x="833.875" y="212.857" transform="rotate(180,833.875,212.857)" style="fill:#e6180a"/>
    <use xlink:href="#diamond" x="683.95" y="58.02" transform="rotate(180,683.95,58.02)"/>
    <use xlink:href="#diamond" x="824.225" y="198.857"/>
    <use xlink:href="#diamond" x="297.566" y="18.5948" transform="scale(2.4) rotate(180,297.566,18.5948)"/>
    <use xlink:href="#diamond" x="297.566" y="86.7083" transform="scale(2.4)"/>
    <use xlink:href="#diamond" x="330.84" y="18.5948" transform="scale(2.4) rotate(180,330.84,18.5948)"/>
    <use xlink:href="#diamond" x="330.84" y="86.7083" transform="scale(2.4)"/>
    <use xlink:href="#diamond" x="314.203" y="50.6536" transform="scale(2.4) rotate(180,314.203,50.6536)"/>
  </g>
</svg>