<svg xmlns:xlink="http://www.w3.org/1999/xlink" version="1.1" viewBox="1004.2 249.755 169.075 244.64">
  <defs>
    <g id="base">
      <path style="fill:#FFFFFF;stroke:#000000;stroke-width:2.5" d="M 0,0C0,3.78 3.09,6.87 6.87,6.87L159.715,6.87C163.485,6.87 166.575,3.78 166.575,0L166.575,-228.4C166.575,-232.18 163.485,-235.27 159.715,-235.27L6.87,-235.27C3.09,-235.27 0,-232.18 0,-228.4L0,0 z"/>
    </g>
    <g id="n_7">
      <text transform="scale(0.56453 1.05741)" font-family="Bitstream Vera Serif" font-weight="bold" font-size="43">7</text>
    </g>
    <g id="heart">
      <path style="fill:#E6180A;" d="M-7.67,3.93c0.01-4.71,5.91-8.14,7.64-11.87c1.75,3.72,7.66,7.12,7.7,11.83c0.01,2.22-1.71,4.03-3.82,4.03C1.73,7.92,0,6.13,0,3.91c0,2.23-1.71,4.03-3.82,4.03C-5.94,7.95-7.66,6.15-7.67,3.93z"/>
    </g>
  </defs>
  <g xmlns:xlink="http://www.w3.org/1999/xlink" id="7_heart">
    <use xlink:href="#base" x="1005.45" y="486.275"/>
    <use xlink:href="#n_7" x="1009.45" y="287.157" style="fill:#e6180a"/>
    <use xlink:href="#n_7" x="1169.02" y="455.995" transform="rotate(180,1169.02,455.995)" style="fill:#e6180a"/>
    <use xlink:href="#heart" x="1019.1" y="301.157" transform="rotate(180,1019.1,301.157)"/>
    <use xlink:href="#heart" x="1159.37" y="441.995"/>
    <use xlink:href="#heart" x="437.212" y="119.902" transform="scale(2.4) rotate(180,437.212,119.902)"/>
    <use xlink:href="#heart" x="437.212" y="151.961" transform="scale(2.4) rotate(180,437.212,151.961)"/>
    <use xlink:href="#heart" x="437.212" y="188.016" transform="scale(2.4)"/>
    <use xlink:href="#heart" x="470.486" y="119.902" transform="scale(2.4) rotate(180,470.486,119.902)"/>
    <use xlink:href="#heart" x="470.486" y="151.961" transform="scale(2.4) rotate(180,470.486,151.961)"/>
    <use xlink:href="#heart" x="470.486" y="188.016" transform="scale(2.4)"/>
    <use xlink:href="#heart" x="453.849" y="142.467" transform="scale(2.4) rotate(180,453.849,142.467)"/>
  </g>
</svg>