<svg xmlns:xlink="http://www.w3.org/1999/xlink" version="1.1" viewBox="166.325 736.03 169.075 244.64">
  <defs>
    <g id="base">
      <path style="fill:#FFFFFF;stroke:#000000;stroke-width:2.5" d="M 0,0C0,3.78 3.09,6.87 6.87,6.87L159.715,6.87C163.485,6.87 166.575,3.78 166.575,0L166.575,-228.4C166.575,-232.18 163.485,-235.27 159.715,-235.27L6.87,-235.27C3.09,-235.27 0,-232.18 0,-228.4L0,0 z"/>
    </g>
    <g xmlns:xlink="http://www.w3.org/1999/xlink" id="Full_joker">
      <use xlink:href="#joker" transform="matrix(0.203,0,0,0.203,441.265,911.431)"/>
      <use xlink:href="#heart" transform="matrix(0.91,0.415,0.415,-0.91,45.691,911.1)"/>
      <use xlink:href="#diamond" transform="matrix(0.968,-0.249,-0.249,-0.968,57.447,931.033)"/>
      <use xlink:href="#club" transform="matrix(0.875,0.485,0.485,-0.875,80.395,932.899)"/>
      <use xlink:href="#spade" transform="matrix(0.961,-0.277,-0.277,-0.961,56.06,885.779)"/>
    </g>
    <g id="joker" transform="translate(-1094.1,-924.2)">
      <path style="fill:#e6180a" d="M 341.26,836.91L337.57,844.04L341.38,868.84L351.31,867.12L370.99,853.8L349.11,832.98" transform="translate(-924.12,211.4)"/>
      <path style="fill:#e6180a" d="M 416.53,178.87C417.91,179.39 384.92,210.49 380.77,210.49L352.78,226.04L336.11,250.66L323.58,278.39L322.81,309.14L334.47,325.72L359.26,330.82L390.27,325.38L424.25,303.76L441.47,281.45L447.98,259.66L445.68,245.13L430.25,237.68L417.07,236.45L416.15,230.9L418.52,217.57L407.23,208.57L386.62,209.93L420.08,179.67L454.75,188.46L471.11,185.5L517.7,242.67L492.77,277.02L488.92,291.86L494.1,312.76L501.88,334.19L498.07,357.34L492.2,365.63L492.89,383.94L489.26,393.27L476.65,398.63L464.9,393.62L457.65,381.01L461.28,366.32L471.12,360.79L479.93,360.62L481.49,358.03L474.58,340.23L458.86,328.66L446.07,327.97L414.98,349.04L411.52,367.19L411.18,397.59L441.24,417.46L454.88,439.4L459.2,464.97L462.66,496.76L491.16,567.59L501.18,585.56L497.38,588.67L474.06,577.78L452.98,556.01L451.77,539.43L455.75,526.47L450.22,516.8L440.89,516.97L435.02,526.3L435.88,533.9L443.48,546.34L440.03,565.52L426.21,591.09L418.95,591.26L404.61,570.87L396.66,543.75L404.09,526.13L403.92,519.04L391.31,508.85L381.63,511.96L374.55,522.84L381.81,546.51L374.03,560.51L344.83,585.21L339.48,582.1L332.74,564.48L331.01,538.22L346.91,525.78L348.12,511.96L339.13,504.19L329.29,505.74L319.44,512.82L318.75,525.78L318.92,541.33L299.4,566.38L277.8,582.79L268.82,580.37L265.02,568.97L264.33,521.29L283.33,511.27L288.86,500.39L282.81,490.71L270.37,486.91L259.49,493.82L254.65,505.22L258.28,520.77L250.33,529.58L238.59,539.43L208.01,553.94L194.53,556.01L194.7,536.32L205.41,502.29L214.4,489.33L234.78,483.28L241.35,470.67L237.72,460.82L224.59,454.95L212.67,461.69L208.52,469.63L206.28,481.38L190.04,492.61L147.71,505.57L141.67,499.87L154.28,463.41L170.86,447L190.38,444.24L198.33,430.59L194.53,417.63L182.78,412.45L171.73,417.8L162.92,437.15L146.5,447.87L106.94,455.12L111.43,437.85L120.93,420.22L127.67,414.35L138.73,402.08L156.87,400.53L164.12,392.93L166.54,386.19L165.68,379.28L155.83,372.89L139.59,377.72L131.13,378.24L115.06,362.69L109.01,352.67L112.81,350.77L133.72,351.29L157.73,344.9L204.9,323.13L225.46,319.16L246.36,323.48L262.25,332.98L261.91,322.79L268.47,314.32L289.2,310.35L290.24,307.75L290.93,292.55L302.16,282.88L310.63,252.99L327.56,226.73L327.73,218.78L316.85,195.8L317.19,171.44L322.03,157.8L331.53,144.67L353.82,134.99L362.8,121.52L372.13,117.2L383.53,120.31L390.79,131.88L387.16,148.47L373.34,154.34L357.45,147.95L354.34,149.16L352.09,166.78L356.58,181.98L366.43,187.86L402.71,178.7" transform="translate(-924.12,211.4)"/>
      <rect width="5.87" height="44.92" x="416.01" y="181.81" transform="matrix(0.34,0.4,-0.75,0.67,-511.6,101.76)" style="fill:#e6180a"/>
      <path style="fill:#e6180a" d="M 97.01,367.81L112.28,371.25L123.03,389.53L111.2,446.53L80.45,503.75L33.34,552.15L-8.17,552.15L-14.84,543.11L38.07,495.36L80.45,426.1" transform="translate(-924.12,211.4)"/>
      <path style="fill:#e6180a" d="M 367.53,586.81L374.17,581.83L393.25,577.13L399.34,582.66L409.57,621.38L413.17,642.39L410.4,681.66L394.64,745.55L383.02,773.75L364.22,798.09L341.26,813.85L342.92,802.79L349.56,792.01L362.28,770.99L373.62,737.53L383.85,692.45L387.45,660.37L382.47,624.42L368.09,598.7" transform="translate(-924.12,211.4)"/>
      <path style="fill:#000000" d="M 261.98,648.49L266.38,644.16L280.01,642.8L290.73,638.93L292.42,637.01L298.07,638.44L300.67,634.79L304.62,636.59L307.63,635.92L314.55,634.03L331.08,601.97L338.75,583.23L344.44,585.97L351.17,583.94L396.56,570.02L399.52,576.22L390.77,576.82L374.63,581.1L365.1,587.44L367,597.78L360.92,600.57L348.51,618.46L350.04,624.22L361.37,621.63L367.48,609.24L365.45,602.44L368.79,601.61L381.18,624.24L378.35,650.44L386.27,664.24L381.68,698.64L376.77,720.63L370.91,743.69L361.11,771.6L345.39,798.01L343.52,786.26L352.98,762.27L348.45,719.39L349.29,679.43L339.97,676.41L334.53,685.68L335.69,774.85L340.73,788.12L342.58,801.01L338.95,816.78L345.28,833.03L340.85,838.36L336.58,848.75L343.63,867.79L347.5,867.64L371.81,852.9L376.54,865.52L364.87,879.96L345.75,884.01L334.03,866.77L332.04,842.7L332.12,834.07L325.45,829.9L324.74,812.16L311.68,776.38L308.09,739.06L307.59,702.48L308.05,679.26L280.83,680.69L278.47,684.99L271.58,680.93L259.27,684.48L249.83,684.2L239.16,690.26L219.98,694.77L202.08,697.15L209.19,689.1L246.8,681.69L259.76,673.8L263.89,654.15" transform="translate(-924.12,211.4)"/>
      <rect style="fill:#000000" width="5.88" height="5.08" x="363.29" y="597.33" transform="matrix(0.79,0,0,0.87,-846.87,289.5)"/>
      <rect style="fill:#000000" width="4.86" height="12.65" x="340" y="787.48" transform="matrix(0.928720,0,0,0.979541,-899.2212,228.0425)"/>
      <rect style="fill:#000000" width="6.67" height="33.56" x="378.38" y="628.45" transform="matrix(1.035084,-0.123285,0.116183,1.068469,-1013.278,213.6010)"/>
      <path style="fill:#000000" d="M 402.5,576.72C402.5,577.94 412.05,598.02 412.05,598.02L418.17,628.87L418.91,670.49L409.36,730.23L406.91,736.1L409.11,737.33L411.56,735.61L439.72,676.12L450.98,627.89L453.43,601.94L457.83,603.65L454.65,641.35L440.21,693.01L415.97,743.2L389.28,778.7L377.04,788.25L376.06,783.11L391.48,754.95L409.6,685.91L413.03,645.27L405.19,599.98L397.6,576.72" transform="translate(-924.12,211.4)"/>
      <g transform="translate(-924.12,211.4)">
        <path style="fill:#e6180a" d="M 222.72,65.72L242.04,67.41L252.67,91.54L244.53,109.11L217.81,105.83L213.51,80.92"/>
        <path style="fill:#e6180a" d="M 282.89,41.48L298.77,33.74L305.1,35.94L307.36,44.14L307.41,51.82L302.89,64.76L287.24,78.83L259.78,85.1L257.81,77.53L267.58,74.48L280.97,61.37"/>
        <path style="fill:#ff009c" d="M 94.46 52.66 A 9.36 10.12 0 1 1 75.74,52.66 A 9.36 10.12 0 1 1 94.46 52.66 z" transform="matrix(1.11,0,0,1.09,-11.05,-5.06)"/>
        <path style="fill:#00ff0a" d="M 116.03 107.81 A 9.19 8.1 0 1 1 97.65,107.81 A 9.19 8.1 0 1 1 116.03 107.81 z" transform="matrix(1.176826,0,0,1.264088,-18.46231,-28.01318)"/>
        <path style="fill:#ff9e00" d="M 171.01 191.5 A 9.99 9.01 0 1 1 151.03,191.5 A 9.99 9.01 0 1 1 171.01 191.5 z" transform="matrix(1.174557,0,0,1.184951,-28.51124,-35.03883)"/>
        <path style="fill:#0072ff" d="M 214.38 221.21 A 10.17 9.88 0 1 1 194.04,221.21 A 10.17 9.88 0 1 1 214.38 221.21 z" transform="matrix(1.13,0,0,1.19,-26.39474,-42.63790)"/>
        <path style="fill:#ffff00" d="M 263.11 233.75 A 12.89 11.96 0 1 1 237.33,233.75 A 12.89 11.96 0 1 1 263.11 233.75 z" transform="matrix(0.903636,0,0,1.084262,24,-18.35793)"/>
        <path style="fill:#e6180a" d="M 142.52 160.94 A 7.17 5.55 0 1 1 128.18,160.94 A 7.17 5.55 0 1 1 142.52 160.94 z" transform="matrix(0.91,-0.55,0.55,0.9,-76.81,90.1)"/>
        <path style="fill:#e6180a" d="M 168.5 137.99 A 3.58 4.4 0 1 1 161.34,137.99 A 3.58 4.4 0 1 1 168.5 137.99 z" transform="matrix(1.13,0,0,1.06,-21.08981,-8.265232)"/>
        <path style="fill:#e6180a" d="M 112.42 185.54 A 4.39 1.71 0 1 1 103.65,185.54 A 4.39 1.71 0 1 1 112.42 185.54 z" transform="matrix(0.938389,-0.666241,0.652294,0.958452,-114.6130,79.73326)"/>
        <rect style="fill:#e6180a" width="23.29" height="11.32" x="25.88" y="226.54" transform="matrix(0.817720,-0.759927,0.785861,0.790735,-173.2408,79.48402)"/>
        <rect style="fill:#e6180a" width="31.88" height="10.78" x="-13.94" y="254.42" transform="matrix(0.870716,-0.702528,0.734339,0.847166,-187.8661,42.76772)"/>
        <path style="fill:#e6180a" d="M -21.55 286.16 A 4.37 3.18 0 1 1 -30.28,286.16 A 4.37 3.18 0 1 1 -21.55 286.16 z" transform="matrix(0.907717,-0.744927,0.730601,0.939754,-211.4329,-1.807364)"/>
        <path style="fill:#e6180a" d="M -24.77,573.32L-17.44,570.69L-6.85,576.33L2.72,585.26L2.82,594.73L-17.63,605.37L-27.88,598.57L-26.86,578.22"/>
        <path style="fill:#e6180a" d="M 56.86,267.99L80.29,260.58L85.7,268.59L78.89,358.49L92.7,374.51L77.89,431.37L61.07,438.98L19.62,423.37L17.62,406.55L33.44,329.26L52.66,274.8"/>
        <path style="fill:#e6180a" d="M 277.36,650.32L342.1,635.49L358.89,628.3L371.1,627.14L374.29,633.02L374.58,662.09L369.42,666.96L278.01,674.15L268.64,672.48L267.99,660.05"/>
        <path style="fill:#e6180a" d="M 496.87,107.87C498.25,107.87 507.06,109.25 508.27,110.29C509.48,111.32 516.21,119.62 516.21,119.62L514.14,135.51L515.18,142.25L527.96,164.53L532.8,190.79L527.96,224.31L518.98,244.7L470.95,185.78L487.71,180.43L503.6,164.19L507.23,146.39L505.68,144.49L489.09,142.42L479.42,128.08L486.15,112.88"/>
        <path style="fill:#000000" d="M 175.26,128.62C163.35,137.89 150.3,154.46 136.22,159.93C130.62,162.06 120.79,146.44 115.62,159.42C107.31,157.04 101.02,160.77 100.62,169.42C91.31,169.45 79.58,176.53 74.36,184.46C69.14,192.42 78.04,201.21 71.61,208.49C56.61,225.45 33.62,238.69 16.19,253.13C10.28,257.98 -1.46,264.16 0.14,273.41C2.34,286.05 22.25,269.41 26.37,265.91C38.29,256.15 50.54,244.85 63.62,236.83C66.22,235.24 72.41,228.41 75.49,229.03C78.9,229.8 85.8,247 86.51,250.42C87.62,256.42 80.6,265.76 78.62,271.42C71.92,290.62 64.54,309.83 59.2,329.42C53.58,350.05 53.37,373.44 45.82,393.42C41.95,403.52 33.81,411.65 28.99,421.42C20.95,437.74 14.41,457.79 9.99,475.42C5.79,492.18 5.32,512.17 6.61,529.42C6.93,532.55 10.61,534.66 10.56,537.42C10.49,540.42 4.93,541.18 4.06,544.48C2.93,548.75 6.25,552.42 6.18,556.42C5.9,571.79 -0.65,589.8 8.61,604.42C15.56,614.75 43.61,601.16 47.61,592.91C49.93,588.56 46.61,584.22 44.94,580.42C39.42,568.99 30.49,562.63 20.61,555.19C17.82,553.02 15.81,543.08 18.34,540.03C20.61,537.43 24.88,539.43 27.61,539.97C34.61,541.49 43.31,540.59 50.61,540.43C75.57,539.81 97.95,536.67 121.61,527.75C128.49,525.15 140.84,522.07 144.61,515.43C123.22,516.43 104.13,531 81.61,527.43C81.96,527.49 97.69,511.6 97.69,511.6C104.77,502.68 127.98,475.44 133.18,465.43C136.88,458.43 140.47,446.49 146.37,441.03C149.83,437.83 159.02,439.14 163.61,438.23C174.61,436 186.09,431.93 195.16,424.92C204.16,417.96 199.54,403.58 213.61,400.09C221.4,398.16 228.42,404.98 229.04,412.44C229.56,418.69 224.02,425 218.61,427.45C213.07,429.96 207.36,427.06 201.61,430.51C187.61,438.87 180.01,457.66 175.49,472.44C174.21,476.63 171.41,485.91 174.61,489.82C178.4,494.44 196.88,488.44 201.61,486.77C213.82,482.75 229.99,477.56 239.04,467.89C242.14,464.57 241.6,459.53 243.05,455.44C246.8,444.83 255.94,438.79 266.43,444.61C274.62,449.19 273.09,458.45 267.51,464.44C259.92,472.53 248.99,467.46 242.51,476.48C233.04,489.68 229.43,508.78 226.28,524.44C225.53,528.18 223.61,538.69 227.22,541.44C230.22,543.77 235.51,541.44 238.62,540.46C248.93,537.44 258.8,533.16 268.03,527.54C277.08,522.03 283.82,515.44 291.62,508.44C279.62,531.13 269.6,555.08 258.93,578.44C255.14,586.73 251.84,601.82 245.12,608.03C238.62,614.03 221.14,598.25 214.62,595.82C211.37,594.59 204.98,593.07 202.62,596.76C196.62,606.16 217.59,619.15 222.62,624.44C206.15,623.73 189.06,619.79 172.62,620.48C167.62,620.69 159.28,620.44 155.62,624.24C151.62,628.25 155.08,632.16 159.62,633.16C171.89,635.87 186.12,638.19 198.62,639.44L198.62,640.44C188.16,642.93 177.17,640.15 166.62,642.03C162.99,642.68 157.44,643.83 155.62,647.54C153.23,652.84 160.62,655.75 164.62,656.25C177.93,657.93 192.24,657.43 205.62,657.43L205.62,659.43C192.31,660.48 179.58,663.01 166.62,666.2C162.62,667.17 153.43,670.11 158.23,675.87C161.62,680.05 168.62,679.61 173.62,679.43C187.33,678.77 200.95,673.71 214.62,673.43C208.19,681.89 195.23,684.1 187.62,692.43C174.81,706.78 197.81,701.05 204.62,697.43C200.87,708.46 195.2,718.75 190.62,729.43C189.05,733.08 185.52,738.13 186.12,742.43C186.62,745.81 189.62,744.43 191.09,742.43C194.3,737.26 196.36,730.93 198.62,725.43L199.62,725.43L197.62,735.43C206.62,733.96 212.88,711.47 215.62,703.43L216.62,703.43C215.62,707.18 207.02,721.56 211.18,724.25C213.62,725.92 215.62,720.99 216.33,719.43C219.62,711.83 223.62,704.25 226.62,696.43L227.62,696.43L220.62,718.43C232.13,715.01 233.09,692.77 240.62,684.43L230.62,711.43C238.62,710.78 242.33,696.43 244.62,689.43L245.62,689.43L240.62,706.43C247.86,705.25 250.81,694.76 252.62,688.43L253.62,688.43L250.62,701.43C257.12,700.43 258.79,693 260.62,687.43L261.62,687.43C257.89,699.43 265.62,694.8 268.62,686.43L269.62,686.43L269.62,692.43C275.93,691.43 277.62,684.86 279.62,679.43L280.62,679.43L279.62,688.43C285.14,687.48 286.45,682.43 287.62,677.43L288.62,677.43L287.62,684.43C294.04,683.92 296.01,678.03 297.62,672.43L298.62,672.43L297.62,681.43C302.49,680.56 303.88,675.66 305.62,671.43L306.62,671.43L306.62,677.43C312.62,676.44 314.33,670.88 315.62,665.43L316.62,665.43C314.29,678.76 321.46,667.89 325.81,666.03C329.83,664.43 336.21,664.98 340.62,664.43C340.62,706.01 337.28,744.94 350.43,785.43C352.09,790.54 355.13,795.22 356.43,800.43C358.29,807.87 353.49,818.58 364.61,819.43C363.9,836.08 363.34,852.14 374.2,866.43C381.95,876.43 403.59,864.73 408.26,856.43C416.85,841.16 400.43,827.43 388.61,819.09C384.39,816.17 373.37,809.54 375.94,802.64C377.52,798.43 384.99,795.26 388.61,793.01C398.25,787.01 407.27,779.93 415.56,772.15C437.32,751.71 452.29,725.99 465.23,699.44C480.62,667.75 491.62,629.81 491.62,594.44C491.62,585.44 491.46,576.44 491.33,567.44C491.3,565.46 491.22,559.71 487.81,560.44C484.51,560.99 485.63,567.9 485.63,570.15C485.92,580.44 484.93,590.44 483.5,600.44C480.04,625.07 475.38,650.44 465.63,673.44C459.04,689.44 448.63,704.44 442.63,720.44L441.63,720.44C454.63,679.5 456.98,633.45 448.43,591.44C446.1,580 442.2,568.24 435.63,558.44C434.13,555.96 432.46,551.44 429.42,550.44C426.26,549.21 419.07,552.7 416.05,553.99C405.98,558.44 395.63,562.23 385.63,566.44C394.59,558.74 416.8,543.89 416.53,530.45C416.36,522.44 408.63,516.44 409.82,507.44C410.59,501.44 417.27,495.44 423.61,495.95C426.05,496.17 427.99,497.54 429.89,498.97C443.36,509.14 428.93,517.48 428.9,528.43C428.87,538.47 434.62,552.48 439.56,561.13C442.62,566.65 449.83,582.23 458.16,578.86C462.62,577.04 465.02,570.47 466.94,566.47C472.25,555.45 479.38,542.14 477.31,529.43C475.9,520.79 461.5,510.43 476.23,503.43C481.13,501.02 486.15,505.7 486.94,510.43C487.97,516.56 482.8,522.43 482.61,528.43C482.37,543.6 496.25,555.82 507.03,564.17C510.61,566.99 532.07,580.96 534.79,571.2C536.01,566.84 531.6,560.17 529.8,556.43C523.6,543.81 517.03,531.56 512.02,518.43C505.6,501.59 498.24,485.43 495.06,467.43C492.11,450.79 494.03,432.43 486.78,416.6C481.82,405.87 473.43,397.05 463.58,390.61C458.38,387.22 451.06,384.94 447.01,380.05C444.02,376.44 447.22,371.49 447.5,367.43C448.24,356.67 444.29,346.45 449.2,335.7C450.96,331.86 458.29,328.9 461.6,326.43C468.33,321.03 473.78,315.08 482.6,313.93C497.24,312.02 511.44,330.26 512.6,343.43C508.04,343.44 503.84,343.72 499.6,345.6C474.06,356.93 499.8,399.7 523.39,378.58C532.6,370.25 525.15,361.94 526.34,352.43C526.82,348.56 530.37,345.8 532.05,342.43C535.15,336.19 536.61,326.43 536.22,319.43C535.09,304.24 523.28,290.81 523.87,275.43C524.6,256.5 549.07,239.06 557.29,222.43C568.61,199.14 570.47,168.8 560.95,144.43C558.1,137.13 551.61,131.43 549,124.48C547.6,121 551.28,117.03 551.5,113.43C552.29,100.69 544.61,88.6 530.61,89.82C516.12,91.08 506.15,108.75 514.34,121.43C519.61,129.75 529.39,132.12 538.61,130.43C538.37,158.52 506.86,173.74 481.61,170C467.12,167.86 455.95,159.8 440.61,160.47C429.43,160.96 419.39,165.02 408.61,167.43C405.07,168.06 399.47,170.43 396.07,168.43C382.47,160.85 388.4,144.66 389.61,133.43C397.61,139.05 407.03,143.43 416.6,137.79C430.86,129.43 427.93,104.89 411.61,100.9C403.96,99.03 394.95,102.08 390.26,108.47C388.1,111.43 387.97,116.16 385.09,118.49C379.4,123.09 370.09,123.64 363.81,128.62C350.46,139.2 346.05,160.43 347.77,176.43C348.47,183.01 350.6,190.46 353.6,196.43C355.88,200.94 360.47,204.72 358.39,210.26C354.42,220.82 345.21,230.17 340.41,240.6C336.59,248.6 337.21,258.72 333.16,266.24C331.17,269.94 326.58,271.64 323.92,274.87C319.56,280.18 320.42,287.14 321.59,293.43C307.59,290.14 289.96,300.16 293.59,315.43C287.54,311.24 279.79,305.43 272.59,303.56C241.97,296.43 209.49,321.7 181.5,330.45C174.87,332.53 166.53,334.68 159.59,334.42C154.59,334.18 147.32,331.59 142.87,334.45C135.26,339.42 146.59,346.25 148.59,349.99C150.85,354.1 144.18,352.59 142.59,351.84C136.59,349.03 120.59,341.99 117.59,336.11C115.41,331.58 117.59,321.6 117.57,316.43C117.16,295.94 122.35,275.71 122.59,255.41C122.59,249.19 123.98,242.55 123.49,236.41C123.2,232.76 121.02,229.15 122.78,225.58C125.32,220.42 130.39,216.41 133.23,211.24C137.16,204.14 138.47,196.03 144.27,190.03C150.6,183.41 162.94,177.45 167.28,169.15C169.23,165.43 165.6,161.98 167.18,158.62C168.51,155.53 174.91,152.79 177.6,150.91C186.6,144.69 195,137.92 203.58,131.16C206.54,128.82 211.02,121.76 215.09,125.78C222.99,133.58 218.01,162.55 207.3,166.42C201.59,168.42 195.95,160.23 188.6,163.42C183.31,165.48 180.6,170.97 180.6,176.42C180.28,195.79 212.1,192.57 206.6,173.42C230.31,166.94 225.39,136.45 230.81,118.42C232.89,111.5 240.48,106.59 241.6,100.42C245.89,99.15 249.83,93.14 253.84,98.65C257.6,103.99 253.32,121.42 253.6,128.42C254.42,145.69 259.6,161.42 253,178.42C251.5,182.22 250.14,188.42 246.39,190.53C243.73,193.36 235.29,191.73 229.98,194.2C220.07,201.24 222.34,223.77 242.05,216.8C252.68,213.05 246.95,205.86 252.03,199.19C257.32,192.23 265.79,187.94 270.6,180.43C281.54,163.48 275.9,143.45 272.6,125.43C271.6,120.15 269.26,99.64 278.56,99.64C282.08,99.64 283.58,104.83 284.55,107.43C287.85,116.43 291.14,125.17 293.18,134.43C297.6,154.78 300.06,183.09 287.25,201.43C283.02,207.43 273.94,204.53 270.6,212.45C267.25,221.11 271.26,230.8 280.6,232.9C290.6,235.18 297.99,226.94 297.56,217.44C297.4,213.92 294.57,209.68 296.33,206.44C299.12,201.21 304.48,197.86 307.22,192.44C316.09,174.87 317.43,149.93 310.9,131.44C305.6,116.85 281.56,99.44 286.5,83.44C290.59,70.18 306.16,72.53 316.59,67.04C340.21,54.61 345.75,37.51 337.62,14.61C337.05,10.61 341.97,6.71 339.56,2.59C337.4,-1.1 332.59,-0.56 330.35,2.59C325.87,8.95 334.06,13.44 325.93,19.63C320.89,23.54 314.31,22.09 308.6,24.14C305.95,25.1 304.07,28.04 301.34,28.55C297.06,29.44 293.19,26.1 289.13,29.44C282.57,34.45 284.6,49.09 272.6,50.44C254.04,52.11 255.48,37.83 246.13,26.44C238.85,17.57 227.6,12.26 216.6,9.67C200.25,5.83 181.8,10.26 171.57,24.6C165.6,32.91 162.88,53.21 149.6,52.76C144.42,52.58 131.27,48.49 129.24,43.22C126.6,36.76 130.95,30.43 123.5,25.44C116.46,20.85 105.94,23.98 103.99,32.45C102.17,40.43 105.6,49.26 114.6,50.23C118.23,50.63 122.05,48.43 125.43,50.1C134.42,54.88 141.29,63.1 152.6,60.97C167.33,58.19 171.6,38.44 182.6,29.73C196.16,19.05 221.17,28.15 234.6,34.86C239.44,37.44 247.26,41.44 248.27,47.44C249.39,54.03 235.6,49.73 232.6,49.44C215.98,47.07 196.6,52.15 187.84,67.46C181.5,78.53 186.22,90.48 170.6,95.14C166.31,96.44 159.84,98.44 156.11,94.88C151.28,90.44 153.32,82.59 145.58,80.1C137.29,77.45 128.04,81.17 126.82,90.45C126.56,92.46 126.82,94.53 127.44,96.45C132.59,112.72 145.43,100.69 155.59,101.99C165.42,103.25 174.58,106.14 183.55,99.03C194.83,90.09 192.59,76.45 208.59,70.79C215.22,68.47 235.88,62.87 238.94,72.46C241.14,79.44 231.46,83.86 227.17,87.17C217.21,94.86 207.47,103.03 197.59,111.06C194.49,113.77 179.44,125.42 175.26,128.62 zM293.62,62.42C303.5,61.42 315.35,49.75 318.05,40.42C319.24,36.42 317.1,30.42 319.5,26.76C322.21,22.7 334.16,17.06 337.39,22.5C347.96,40.42 325.51,62.59 309.61,64.55C304.62,65.16 295.62,69.25 293.62,62.42 zM115.62,26.82C127.79,25.23 131,45.46 118.62,47.2C105.4,49.06 102.62,28.5 115.62,26.82 zM286.62,43.42C286.28,46.47 287.62,52.55 292.07,48.99C293.9,47.51 284.92,38.42 290.22,33.03C293.24,30.03 298.02,32.76 301.62,32.25C305.07,31.76 308.62,27.67 312.3,29.09C316.91,30.89 314.35,40.48 312.62,43.51C308.12,51.55 296.9,62.99 286.62,61.14C275.36,59.09 279.57,47.65 286.62,43.42 zM300.62,37.42L304.62,44.42C311.16,40.42 307.62,34.1 300.62,37.42 zM291.62,48.07C291.26,48.43 289.7,49.27 289.05,49.02C288.4,48.77 287.5,41.74 287.5,41.74C287.5,41.74 291.98,47.71 291.62,48.07 zM263.62,52.17C275.32,49.42 285.5,73.5 281.88,82.42C278.79,89.95 273.81,83.9 268.62,85.17C265.62,85.91 264.62,89.46 261.56,90.05C259.62,90.43 257.43,89.49 257.37,87.43C257.25,83.21 263.9,81.91 262.15,77.46C260.3,72.77 248.62,76.03 249.62,70.43C250.8,63.81 259.14,70.43 261.53,66.15C263.84,62.18 255.88,54.03 263.62,52.17 zM137.62,83.76C150.48,81.42 155.8,99.93 141.62,102.19C129.33,104.16 124.89,86.15 137.62,83.76 zM531.62,570.42C512.62,566.75 491.45,551.04 486.41,531.42C483.58,520.42 499.03,506.05 481.62,498.95C473.13,495.43 466.19,507.44 466.2,514.42C466.21,521.73 472.28,524.97 474.04,531.42C476.82,541.54 467.62,556.77 463.21,565.42C461.62,568.42 459.56,573.98 455.62,574.5C449.61,575.42 442.43,558.93 440.49,554.42C437.5,547.46 432.19,537.16 432.93,529.42C433.36,524.95 436.95,521.65 438.12,517.42C440.97,507.01 437.15,496.42 426.62,492.57C419.23,489.86 409.62,496.46 407.41,503.43C403.62,514.56 413.83,521.99 412.43,531.43C410.35,545.43 387.42,558.9 377.62,567.43L376.62,567.43C367.87,559.62 368.62,548.43 367.2,537.43C366.62,533.43 365.28,526.66 367.62,523.02C373.36,514.43 385.62,513.12 383.15,499.43C380.51,484.9 362.62,483 354.02,493.47C345.63,503.65 354.54,514.1 349.92,524.43C342.44,541.15 324.63,553.84 311.63,565.43C311.63,565.43 306.56,565.39 305.57,564.39C304.58,563.39 302.38,560.86 301.47,558.26C298.98,551.14 298.05,540.89 298.92,533.43C299.63,526.08 297.18,514.43 300.24,507.71C302.87,502.02 314.62,500.46 319.12,495.72C329.28,485.03 316.58,467.68 303.63,469.65C293.85,471.14 286.03,481.73 286.82,491.44C287.19,496 290.81,501.63 288.2,505.93C277.16,524.12 248.35,534.73 228.63,538.44C228.63,520.44 234.36,489.67 248.15,476.76C255.48,469.89 266.83,475.8 273.63,464.44C280.9,452.44 271.92,438.5 258.64,437.67C249.33,437.09 241.96,446.44 239.64,454.44C238.88,457.44 239.64,461.44 237.95,463.81C230.31,473.67 213.64,477.87 202.64,482.02C198.44,483.58 182.02,489.2 178.64,484.84C175.36,480.5 181.54,469.64 183.18,465.45C187.64,453.92 193.83,439.86 205.64,433.77C214.41,429.25 223.21,434.7 229.91,424.45C238.64,410.88 227.44,390.72 210.64,396.51C197.64,400.97 200.64,413.15 193.21,420.98C181.14,433.61 158.91,435.45 142.64,435.45C144.52,420.45 159.95,396.97 172.81,389.06C176.97,386.5 181.27,388.96 185.64,387.98C194.64,385.91 202.59,374.76 200.22,365.49C197.96,356.66 185.3,353.45 177.64,356.46C174.6,357.69 171.96,361.18 168.64,361.53C165.23,361.9 162.64,357.76 160.55,355.74C154.91,350.49 145.89,345.57 144.64,337.45C159.15,337.45 172.64,337.45 186.51,332.45C208.97,324.2 231.39,308.65 255.64,305.64C272.08,303.6 281.29,318.45 296.64,318.45C296.57,315.05 295.26,310.74 296.42,307.49C300.47,296.19 317.46,301.76 323.04,294.45C325.81,290.59 323.84,285.55 325.5,281.45C327.64,276.04 333.64,274.23 336.21,269.45C339.96,262.2 339.64,252.96 342.99,245.45C348.11,233.83 358.64,222.45 362.13,210.45C364.42,202.45 356.03,193.07 353.64,185.45C348.64,169.79 349.97,153.84 358.32,139.45C365.64,126.63 376.01,127.57 386.62,120.71C394.92,115.45 399.9,98.97 413.63,105.91C424.21,111.25 424.43,128.77 413.63,134.14C404.29,138.78 398.63,129.85 390.63,131.46C376.28,134.02 384.63,162.59 390.27,169.15C394.47,174.07 399.87,173.54 405.63,172.46C417.82,169.79 429.06,165.68 441.63,164.63C453.63,163.63 462.63,171.46 473.63,173.98C496.8,179.62 534.33,169.46 540.63,143.45C541.63,139.21 543.63,132.45 540.19,128.88C537.07,125.71 532.54,126.89 528.63,126.1C520.59,124.49 514.53,116.61 515.96,108.44C518.42,94.44 537.22,89.86 545.24,101.44C550.96,109.7 543.49,117.19 545.47,125.44C546.46,129.45 550.95,132.75 552.97,136.44C557.63,144.98 560.49,153.85 562.17,163.44C566.61,188.73 560,213.44 545.54,234.44C537.44,246.2 523.25,256.47 520.93,271.44C518.29,288.51 530.83,302.94 532.46,319.44C533.11,326.04 532,335.27 529.34,341.44C527.88,344.75 524.47,346.7 523.87,350.46C522.28,360.44 529.39,370 518.49,377.84C507.37,385.84 489.96,373.44 493.04,360.44C494.19,355.65 497.82,350.23 502.62,348.67C506.41,347.44 512.19,348.01 514.59,344.16C517.35,339.74 513.86,332.44 511.5,328.44C504.44,316.87 493.83,308.27 479.62,310.21C473.29,311.07 468.47,315.96 463.62,319.68C458.62,323.46 451.1,327.03 447.23,331.84C439.85,340.99 443.56,355.45 443.6,365.45C443.62,370.16 439.96,375.93 441.33,380.45C443.34,386.99 455.24,391.08 460.63,394.45C470.89,400.65 478.97,409.65 484.26,420.45C493.88,440.12 490.44,467.16 496.54,488.45C501.92,507.23 510.24,525.87 518.63,543.45C523.01,552.42 528.89,560.93 531.62,570.42 zM197.62,118.16C202.62,116.68 204.19,125.46 199.48,126.67C194.15,128.04 192.54,119.67 197.62,118.16 zM164.62,138.42L163.62,139.42L164.62,138.42 zM168.62,139.91C178.23,138.1 176.44,149.79 167.62,151.12C157.95,152.59 161.57,141.24 168.62,139.91 zM121.92,161.13C130.54,158.07 133.82,184.42 127.45,185.5C121.93,186.45 115.62,163.42 121.92,161.13 zM116.62,195.42C108.62,194.08 102.98,174.7 106.36,167.7C110.31,159.54 115.33,172.04 115.62,175.42C115.97,178.09 116.46,180.73 116.58,183.42C116.62,187.42 116.62,191.43 116.62,195.42 zM160.62,165.42C157.91,174.42 146.62,178.14 140.9,184.6C134.2,192 132.31,203.98 125.62,212.13C122.01,216.8 113.13,219.04 110.54,222.95C108.62,225.75 114.62,227.01 116.02,228.42C119.08,231.42 117.62,238.1 115.05,240.85C111.36,244.61 95.62,251.42 90.92,247.8C86.94,244.73 85.86,237.85 84.16,233.42C83.01,230.44 80.62,226.92 81.12,223.59C81.55,220.17 89.11,212.11 92.62,212.02C95.6,211.95 97.42,214.62 100.57,213.5C105.85,211.62 104.62,205.52 107.85,202.03C112.94,196.47 119,201.21 120.62,190.41C138.08,192.5 142.28,167.42 160.62,165.42 zM189.62,166.85C203.62,162.8 211.2,181.61 197.58,185.75C185.35,189.47 177.36,170.42 189.62,166.85 zM144.62,167.42C143.88,171.55 141.55,172.06 137.62,172.42C138.35,168.06 140.45,167.56 144.62,167.42 zM94,175.17C97.19,174.25 98.86,178.08 99.58,180.42C101.04,185.17 106.89,204.54 100.4,207.16C97.2,208.45 95.01,204.82 94.03,202.42C92.14,197.78 86.51,177.42 94,175.17 zM87.62,211.42C80.62,209.12 74.34,193.42 78.62,186.7C82.62,180.42 86.62,188.64 87.32,192.42C87.62,195.07 87.62,197.76 88.04,200.42C88.55,204.42 88.33,207.6 87.62,211.42 zM479.62,227.42C479.62,227.42 473.4,223.3 466.18,221.36C460.61,219.86 454.34,220.42 450.62,220.42C451.36,214.6 454.82,207.21 452.62,201.42C445.54,181.15 409.23,194.42 397.62,201.21C369.5,217.78 350.61,252.98 355.21,285.43C355.85,289.91 354.62,293.96 356.35,298.43C364.14,318.43 391.37,316.47 408.62,314.6C446.93,310.42 491.25,267.61 479.62,227.42 zM235.62,194.9C250.37,191.19 250.95,212.66 239.45,215.14C224.62,218.42 221.18,198.53 235.62,194.9 zM409.62,238.42L398.62,249.42C409.03,247.63 422.47,241.45 427.05,231.42C431.62,221.07 422.12,203.42 410.62,202.42C413.24,211.85 432.27,229.42 414.62,235.42C414.62,223.05 412.62,209.78 397.62,209.42C402,194.86 439.61,189.64 448.88,201.76C453.58,207.9 444.26,216.97 450.06,221.78C458.39,228.69 474.61,219.98 479.05,235.42C482.89,248.78 473.38,263.42 465.89,273.42C446.48,299.57 400.37,326.78 367.62,306.42C359.46,301.17 357.62,290.42 357.62,281.42C357.59,262.02 362.55,248.71 372.91,232.42C376.3,227.09 381.62,214.94 388.56,213.59C391.62,212.96 393.02,219.41 393.93,221.41C397.23,229.16 401.13,235.9 409.62,238.42 zM77.82,208.42C81.36,207.77 83.61,212.65 82.63,215.46C81.29,220.05 72.8,229.04 67.8,229.42C64.63,229.42 60.63,224.92 62.21,221.93C63.8,218.69 74.41,208.89 77.82,208.42 zM279.62,209.02C292.83,203.87 299.86,223.78 288.53,228.52C274.98,234.2 267.3,213.86 279.62,209.02 zM410.93,235.4C410.23,235.92 409.56,235.35 408.37,234.96C407.18,234.57 404.43,231.68 402.94,229.98C401.45,228.28 398.26,223.65 398.26,223.65C398.26,223.65 401.27,224.65 404.19,222.01C407.11,219.37 407.23,216.32 407.23,216.32C407.23,216.32 408.74,218.05 410.48,223.25C411.41,226.05 412.45,231.44 412.24,232.63C412.03,233.82 411.63,234.88 410.93,235.4 zM397.22,213.11C399.33,211 400.51,211.85 401.64,212.25C402.77,212.65 405.49,214.24 405.49,214.24C405.49,214.24 403.09,213.9 400.32,216.4C397.55,218.9 397.41,221.07 397.41,221.07C397.41,221.07 396.18,218.42 396.01,217.04C395.77,215.14 395.1,215.23 397.22,213.11 zM27.62,260.42C16.21,253.16 37.19,236.91 45.62,234.9C56.47,232.42 48.81,244.42 45.62,246.99C43.34,248.9 41,250.75 38.62,252.53C35.01,255.23 31.2,257.67 27.62,260.42 zM438.62,244.42L453.62,252.46L465.62,261.42C464.87,247.67 450.98,240.77 438.62,244.42 zM367.62,262.42L379.62,246.42C371.28,246.98 365.59,254.09 367.62,262.42 zM104.62,248.75C120.24,246.15 114.51,270.46 113.45,280.42C111.62,296.14 110.62,311.64 109.53,327.42C109.16,332.87 106.62,339.08 107.12,344.42C107.83,353.42 115.13,352.77 118.01,358.73C120.61,364.15 118.2,373.8 117.19,379.42C115.51,388.73 110.27,414.22 99.52,417.1C94.9,418.42 89.96,416.09 85.61,414.85C74.59,411.71 56.61,409.54 54.93,395.42C53.89,387.07 57.28,376.75 58.48,368.42C62.48,340.62 70.87,313.42 78.47,286.42C82.62,271.53 86.57,251.75 104.62,248.75 zM430.62,255.42L425.62,255.42C426.57,268.55 444.07,276.71 455.62,278.42C455.6,271.91 455.33,260.63 450.34,255.84C445.49,251.16 432.22,245.64 430.62,255.42 zM416.62,287.42L409.62,298.42C427.44,295.64 420.62,279.48 415.62,268.42C410.62,273.19 415.17,277.04 416.62,282.42C406.9,280.95 397.06,270.44 390.62,263.42C388.37,260.81 385.62,254.06 381.62,254.06C370.34,254.06 372.37,276.76 377.12,282.2C385.46,291.75 405.62,289.46 416.62,287.42 zM401.62,254.42C400.62,261.08 407.62,264.77 413.62,265.42C413.12,258.91 407.25,256.42 401.62,254.42 zM381.62,258.42L404.62,284.42C391.92,284.42 370.79,274.42 381.62,258.42 zM432.51,256.13C433.39,254.54 435.37,252.65 438.17,252.36C440.97,252.36 443.13,254.39 443.13,254.39C443.13,254.39 439.8,255.26 437.42,257.91C435.04,260.56 434.46,265.42 434.46,265.42C431.66,264.84 431.17,258.94 432.51,256.13 zM443.6,263.93C446.34,261.26 446.29,257.13 446.29,257.13C446.29,257.13 449.38,259.39 450.86,263.52C452.37,267.73 453.69,272.64 452.21,274.12C450.73,275.6 445.61,273.2 442.42,271.73C439.81,270.53 436.65,267.32 436.65,267.32C436.65,267.32 441.02,266.44 443.6,263.93 zM7.62,267.04C14.2,266.69 11.96,274.42 6.62,274.85C1.01,275.45 2.5,267.42 7.62,267.04 zM362.36,334.45C360,336.68 364.07,339.6 365.62,340.54C369.88,342.93 379.62,347.42 383.96,342.68C387.99,338.25 365.43,331.55 362.36,334.45 zM317.62,340.42C323.62,366.22 353.54,379.76 376.62,385.18C385.62,387.42 400.96,389.03 407.62,381.42C387.19,376.13 368.51,376.42 349.62,364.81C339.61,358.74 329.11,341.42 317.62,340.42 zM153.57,385.34C139.07,442.75 114.43,489.81 79.08,519.99C67.34,530.02 54.98,534.42 39.62,534.42C36.45,534.42 27.62,535.94 26.28,532.11C24.54,527.55 58.45,499.63 69.03,488.42C91.86,463.74 108.27,435.53 119.62,404.42C125.62,388.23 131.57,371.92 131.62,354.42C135.56,354.43 155.13,365.29 153.57,385.34 zM154.62,401.42L159.62,371.42L149.62,355.42C155.61,357.05 160.44,363.71 166.62,364.42C176.62,365.48 186.62,353.49 197.05,364.17C200,367.23 198.87,372.08 197.06,375.42C189.15,389.98 178.62,379.72 168.62,386.61C162.97,390.51 161.01,399.42 154.62,401.42 zM30.62,507.42C25.04,505.65 42.19,451.71 45.6,442.59C48.27,435.43 52.62,423.13 58.24,417.78C61.26,414.87 68.26,415.83 69.01,420.48C70.06,426.97 62.35,435.51 60.06,441.42C52.8,460.12 47.33,478.05 42.5,497.42C41.11,502.91 36.2,509.19 30.62,507.42 zM302.62,473.76C312.92,471.74 322.5,479.61 317.62,490.42C314.97,496.42 304,502.51 297.62,503.75C292.14,504.83 291.04,496.42 290.5,492.42C289.33,484.03 293.62,475.52 302.62,473.76 zM313.62,625.42C311.62,618.42 321.27,604.05 324.4,597.42C335.2,574.53 347.62,551.22 356.33,527.42C359.26,519.42 350.62,510.5 353.41,501.42C355.83,493.14 366.27,487.42 374.33,491.71C382.59,496.23 381,506.41 375.41,512.41C371.44,516.56 365.04,517.89 361.62,522.6C355.61,530.85 352.11,542.16 347.86,551.41C336.59,575.92 326.62,601.84 313.62,625.42 zM296.62,511.42L282.93,545.42L252.62,613.42L251.62,613.42C252.95,598.42 284.42,526.52 296.62,511.42 zM296.62,524.42C296.62,524.42 272.25,603.49 258.62,612.42L283.2,555.42L296.62,524.42 zM363.62,530.42L353.04,557.42L322.62,623.42L321.62,623.42C325.12,603.75 338.99,582.59 347.31,564.42C352.27,553.59 355.98,539.65 363.62,530.42 zM346.62,537.42L305.62,627.42L304.62,627.42C303.62,620.05 310.6,610.02 313.87,603.42C321.38,588.42 327.99,572.65 335.36,557.42C338.62,550.67 340.8,542.42 346.62,537.42 zM364.62,545.42C362.62,563.74 347.97,585.68 340.31,602.42C337.59,608.42 335.23,617.75 329.62,621.42L351.84,571.42L364.62,545.42 zM296.62,547.42L279.04,588.42L266.62,614.42C265.62,606.74 272.3,596.2 275.62,589.42C282.62,575.91 288.62,561.46 294.62,547.42L296.62,547.42 zM365.62,553.42C367.21,562.14 362.94,568.65 359.48,576.42C353.38,590.11 343.24,605.69 340.62,620.42C349.29,620.42 351.62,614.77 354.89,607.42C360.32,595.02 369.52,581.9 371.62,568.42L370.62,568.42L347.62,618.42L346.62,618.42C349.06,601.92 361.23,580.8 369.62,566.42C369.62,566.42 375.82,571.42 377.62,571.42C379.42,571.42 385.92,569.68 399.19,564.19C400.96,563.61 433.45,553.42 429.37,559.73C428.12,561.7 422.79,560.19 420.61,561.42C420.61,561.42 395,565.73 396.83,574.43C399.61,587.81 411.33,599.57 414.61,613.42C423.25,648.42 414.12,684.51 405.93,718.42C402.18,733.97 395.9,751.42 388.3,765.42C384.1,773.19 375.46,781.99 373.35,790.42C372.51,793.76 370.61,801.18 371.44,804.42C372.41,808.58 376.31,812.65 375.55,817.25C374.15,825.81 366.88,828.9 369.13,839.42C369.61,841.82 370.53,844.16 371.47,846.42C377.61,861.42 385.46,847.77 396.61,844C399.09,843.16 402.85,841.46 405.29,843.15C412.27,848.01 401.3,860.42 396.57,862.43C392.46,864.23 384.42,867.77 379.99,865.81C371.56,862.09 367.39,843.59 366.8,835.42C366.45,830.58 368.86,825.17 367.01,820.47C365.61,817.04 361.61,815.8 360.36,812.42C358.61,808.23 361.11,803.71 359.98,799.42C357.62,790.53 352.58,782.42 350.05,773.42C345,755.61 343.54,736.77 341.79,718.42C340.62,706.52 341.89,693.42 342.62,681.42C343.05,676.49 344.96,670.42 343.02,665.48C340.06,658.14 325.62,661.42 320.62,664.42L319.62,664.42C315.41,662.73 312.96,664.09 311.62,668.42L310.62,668.42C307.62,662.95 301.15,664.52 296.62,667.42L289.62,667.42L288.62,667.42C283.62,665.77 274.62,670.42 271.62,674.42C267.62,673.04 265.55,673.47 262.62,676.42L238.62,680.42C242.85,672.99 256,672.78 263.62,671.42C271.01,669.92 287.95,665.96 292.62,659.99C297.62,653.9 298.06,639.52 296.62,632.42L299.62,629.42C306.29,630.45 320.85,627.22 325.62,622.42L331.62,624.42L333.62,620.42L334.62,620.42L338.62,622.42C338.62,612.42 345.23,602.46 349.45,593.42C355.62,580.23 360.9,566.97 365.62,553.42 zM330.62,554.42L319.49,580.42L296.62,630.42L295.62,630.42L317.2,581.42L330.62,554.42 zM10.94,558.03C18.55,554.45 36.61,567.03 35.21,575.42C34.13,581.88 28.85,578.71 25.14,581.15C23.1,582.49 22.26,585.15 20.1,586.42C7.07,593.57 1.37,562.53 10.94,558.03 zM297.62,558.42C296.88,572.62 285.21,589.61 279.17,602.42C276.94,607.16 275.22,613.64 270.62,616.42C275.62,598.68 286.51,573.11 297.62,558.42 zM376.62,792.42C378.92,779.75 391.62,767.89 396.53,755.42C408.95,723.42 419.16,688.84 421.53,654.42C422.6,638.94 422.13,622.02 416.42,607.42C412.58,597.61 402.18,584.66 401.24,574.44C400.57,567.22 419.22,563.48 424.62,563.95C431.38,564.54 432.88,573.16 434.51,578.42C439.32,593.9 442.21,609.42 443.9,625.42C447.98,664.42 423.73,736.45 420.99,743.42C418.25,750.39 397.89,782.52 376.62,792.42 zM433.62,563.42C452.98,590.64 453.5,639.77 448.19,671.42C446.23,683.08 444.54,694.93 441.62,706.42C440.84,710.15 437.62,717.45 439.26,721.13C441.25,725.67 446.62,719.42 447.98,717.42C453.87,709.42 456.98,699.42 461.37,690.42C476.1,660.54 486.17,626 487.61,592.42L488.61,592.42C488.61,638.59 470.48,688.83 445.83,727.42C436.49,742.04 427.11,757.21 412.61,767.42C433.43,729.5 453.6,653.4 445.47,610.84C443.12,598.49 433.62,563.42 433.62,563.42 zM317.62,566.42C313.32,586.51 299.43,607.82 290.62,626.42L289.62,626.42L309.24,582.42L317.62,566.42 zM385.62,566.42L385.62,567.42L382.62,567.42L385.62,566.42 zM302.62,567.42L278.62,619.42L283.62,621.42L301.25,583.42L309.62,568.42L284.62,623.42L278.33,618.2L286.62,598.25L300.62,567.42L302.62,567.42L302.62,567.42 zM395.61,583.48C387.62,584.54 372.61,611.15 385.62,610.23C393.87,609.65 400.22,604.71 401.41,596.42C401.98,592.48 401.91,582.63 395.61,583.48 zM396.62,586.42C402.56,597.55 394.62,605.98 383.62,607.42C384.47,599.14 389.62,590.94 396.62,586.42 zM296.62,638.42L296.62,639.42C292.45,644.19 294.17,655.05 290.02,658.42C277.1,668.79 253.92,668.42 238.62,673.95C222.06,680.09 208.53,694.64 190.62,697.42C196.41,686.42 218.88,686.58 221.87,673.46C223.3,667.17 212.08,668.22 208.62,668.59C192.37,670.42 177.23,676.5 160.62,673.42L160.62,672.42L215.62,660.42C212.11,649.42 203.25,653.1 194.58,653.42C183.6,653.61 168.1,653.52 157.62,650.42L157.62,649.42C169.27,644.47 183.22,645.42 195.62,645.42C199.61,645.42 208.96,646.5 211.62,642.84C215.42,637.96 202.92,636.55 200.62,635.83C187.5,631.71 172.42,629.42 158.62,629.42C160.57,623.87 166.81,626.02 171.62,625.67C185.58,624.63 198.03,628.42 211.62,629.42C216.13,629.66 227.91,631.12 228.58,624.42C228.97,620.55 224.25,617.94 221.62,616.08C215.62,611.93 207.2,607.11 206.62,599.42L241.62,616.42L275.62,624.42L296.62,638.42 zM370.62,619.22C356.1,624.03 340.56,627.2 325.62,630.43C319.62,631.68 311.99,630.7 306.8,634.13C300.62,638.18 297.2,650.43 300.36,657.2C303.46,663.83 318.99,659.7 324.62,659.43C344.62,658.44 365.62,657.74 385.62,655.15C391.48,654.43 401.62,655.43 406.19,651C412.62,644.63 409.73,618.02 405.73,610.67C403.01,605.66 378.16,616.72 370.62,619.22 zM400.57,613.07C404.29,613.42 405.26,617.42 405.53,620.42C406.1,626.91 408.86,643.91 403.19,648.56C398.24,652.62 387.6,650.75 381.53,651.54C362.98,653.96 343.36,654.95 324.62,655.43C318.92,655.58 310.33,658.46 304.94,655.81C297.45,652.12 306.62,638.24 311.62,636.5C329.91,630.1 350.86,629.54 369.62,623.53C378.49,620.7 391.18,612.42 400.57,613.07 zM373.62,659.99C366.07,662.21 366.94,675.04 366.62,681.42C365.62,704.03 366.62,726.88 367.62,749.42C367.84,753.61 368.22,775.71 375.02,773.57C381.12,771.65 384.62,757.89 386.19,752.42C388.89,742.67 384.62,729.49 383.79,719.42C382.57,706.63 383.62,693.42 383.62,680.42C383.62,672.73 386.58,656.19 373.62,659.99 zM375.62,770.42C370.62,767.42 371.56,755.93 370.91,750.42C368.44,729.58 369.62,708.42 369.62,687.42C369.62,682.42 368.48,665.81 373.92,663.42C384.62,658.43 379.46,683.81 380.04,688.42C381.55,700.42 379.88,712.45 380.62,724.42C381.22,731.82 384.88,740.06 384.06,747.42C383.15,755.59 377.18,762.54 375.62,770.42 zM301.62,666.42L299.62,672.42L298.62,672.42L301.62,666.42 zM308.62,666.42L307.62,671.42L306.62,671.42L308.62,666.42 zM285.62,668.42L283.62,674.42L282.62,674.42L285.62,668.42 zM292.62,668.42L289.62,677.42L288.62,677.42L292.62,668.42 zM277.62,672.42L277.62,673.42L274.62,677.42L277.62,672.42 zM267.62,675.42L262.62,687.42L261.62,687.42L267.62,675.42 zM282.62,675.42L281.62,679.42L280.62,679.42L282.62,675.42 zM258.62,678.42L254.62,688.42L253.62,688.42L258.62,678.42 zM273.62,678.42L270.62,686.42L269.62,686.42L273.62,678.42 zM250.62,679.42L247.62,687.42L246.62,687.42L248.62,679.42L250.62,679.42 zM241.62,681.42L241.62,684.42L240.62,684.42L241.62,681.42 zM232.62,685.42L228.62,696.42L227.62,696.42L232.62,685.42 zM246.62,688.42L245.62,689.42L246.62,688.42 zM223.62,689.42L217.62,703.42L216.62,703.42L223.62,689.42 zM214.62,693.42L200.62,725.42L199.62,725.42C200.87,717.07 207.24,697.92 214.62,693.42 zM378.62,851.42C372.62,846.05 366.62,817.85 381.62,820.5C385.4,821.16 401.8,834.92 399.44,838.77C398.07,841 392.88,841.42 390.62,842.42C385.85,844.42 382.01,847.55 378.62,851.42 z " transform="translate(-33.13,15.52)"/>
      </g>
    </g>
    <g id="heart">
      <path style="fill:#E6180A;" d="M-7.67,3.93c0.01-4.71,5.91-8.14,7.64-11.87c1.75,3.72,7.66,7.12,7.7,11.83c0.01,2.22-1.71,4.03-3.82,4.03C1.73,7.92,0,6.13,0,3.91c0,2.23-1.71,4.03-3.82,4.03C-5.94,7.95-7.66,6.15-7.67,3.93z"/>
    </g>
    <g id="diamond">
      <path style="fill:#e6180a" d="M0,0C-2.56,0-5.12,0-7.68,0C -6.8053,0.039-6.061,0.605-5.358,1.0728C-3.779,2.264-2.3,3.63 -1.132,5.228C-0.587,6.032 -0.0144,6.936 0,7.94M-7.68,0C-6.57,-0.035 -5.622,-0.7413 -4.776,-1.393C-3.281,-2.648 -1.987,-4.141 -0.895,-5.757C-0.494,-6.426 -0.022,-7.135 0,-7.94C0,-5.293 0,-2.647 0,0M0,-7.94C0.038,-6.758 0.758,-5.734 1.438,-4.82C2.65,-3.310 4.086,-1.974 5.666,-0.857C6.28,-0.474 6.932,-0.0185 7.68,0C5.12,0 2.56,0 0,0M 7.68,0C6.57,0.035 5.622,0.741 4.776,1.392C 3.281,2.648 1.987,4.141 0.895,5.757C0.494,6.426 0.0225,7.135 0,7.94C0,5.293 0,2.647 0,0"/>
    </g>
    <g id="club">
      <path d="M3.35,4.66c0-1.81-1.51-3.28-3.38-3.28s-3.38,1.47-3.38,3.28c0,1.81,1.51,3.28,3.38,3.28S3.35,6.47,3.35,4.66z"/>
      <path d="M7.71-1.55c0-1.81-1.51-3.28-3.38-3.28S0.95-3.36,0.95-1.55c0,1.81,1.51,3.28,3.38,3.28S7.71,0.26,7.71-1.55z"/>
      <path d="M-0.95-1.57c0-0.66-0.2-1.28-0.55-1.8c-0.6-0.89-1.65-1.48-2.83-1.48c-1.87,0-3.38,1.47-3.38,3.28  c0,1.81,1.51,3.28,3.38,3.28S-0.95,0.24-0.95-1.57z"/>
      <path d="M3.94-7.94c-1.67,0-2.55,1.36-3.01,2.72C0.47-3.86,0.43-2.5,0.43-2.5h-0.86c0,0-0.16-5.43-3.5-5.44H3.94z"/>
      <path d="M-2.32,2.25c1.9-1.9,1.9-4.75,1.9-4.75l0.85-0.01c0,0,0,2.91,1.85,4.76"/>
      <path d="M-1.94-3.85c1.9,1.9,4.75,1.9,4.75,1.9v0.85c0,0-2.91,0-4.76,1.85"/>
      <path d="M1.87-3.86c-1.9,1.9-4.75,1.9-4.75,1.9v0.85c0,0,2.91,0,4.76,1.85"/>
    </g>
    <g id="spade">
      <path d="M3.92-7.93c-1.67,0-2.55,1.78-3.01,3.56c-0.46,1.78-0.5,3.56-0.5,3.56L-0.44-0.8c0,0-0.16-7.13-3.5-7.13H3.92z"/>
      <path d="M6.75-0.8C6.74,2.67,1.53,5.19,0,7.93C-1.53,5.18-6.74,2.66-6.75-0.8c0-1.64,1.51-2.97,3.38-2.97C-1.51-3.77,0-2.44,0-0.8c0-1.64,1.51-2.97,3.38-2.97S6.75-2.44,6.75-0.8z"/>
    </g>
    <g id="joker_text">
      <text transform="matrix(0.512616,0.000000,0.000000,1.170664,8.034702,763.1465)" style="font-size:22;font-weight:bold;font-family:Bitstream Vera Serif">JOKER</text>
      <text transform="matrix(-0.512616,0.000000,0.000000,-1.170664,158.5403,953.5535)" style="font-size:22;font-weight:bold;font-family:Bitstream Vera Serif;">JOKER</text>
    </g>
  </defs>
  <g xmlns:xlink="http://www.w3.org/1999/xlink" id="red_joker">
    <use xlink:href="#base" x="167.575" y="972.55"/>
    <use xlink:href="#Full_joker" transform="translate(167.575 0)"/>
    <use xlink:href="#joker_text" transform="translate(167.575 0)" style="fill:#e6180a"/>
  </g>
</svg>